<svg width="250" height="222" viewBox="0 0 250 222" fill="none" xmlns="http://www.w3.org/2000/svg">
<path d="M249.714 220.702H0V222H249.714V220.702Z" fill="#00286B"/>
<path d="M129.053 117.274L89.3982 143.531V221.301H167.509V143.531L129.053 117.274Z" fill="#005DAF"/>
<path d="M168.207 222H88.6983V143.131L129.052 116.476L168.207 143.131V222ZM90.0966 220.602H166.809V143.83L129.052 118.073L90.0966 143.83V220.602Z" fill="#00286B"/>
<path d="M43.1512 143.531L82.4061 117.274H129.053L89.3981 143.531H43.1512Z" fill="#004D8E"/>
<path d="M89.3978 144.23H43.2507L42.8512 142.932L82.0063 116.676L82.4058 116.576H129.052L129.452 117.874L89.7974 144.13L89.3978 144.23ZM45.5481 142.832H89.1981L126.755 117.974H82.7055L45.5481 142.832Z" fill="#00286B"/>
<path d="M89.2983 143.531H43.1512V221.301H89.2983V143.531Z" fill="#004D8E"/>
<path d="M90.0966 222H42.5512V142.832H90.0966V222ZM43.8497 220.602H88.5984V144.23H43.8497V220.602Z" fill="#00286B"/>
<path d="M122.061 152.116H112.272V170.286H122.061V152.116Z" fill="#47AFFF"/>
<path d="M122.06 170.985H112.271L111.572 170.286V152.116L112.271 151.418H122.06L122.759 152.116V170.286L122.06 170.985ZM112.97 169.587H121.361V152.815H112.97V169.587Z" fill="#00286B"/>
<path d="M143.436 152.116H133.648V170.286H143.436V152.116Z" fill="#47AFFF"/>
<path d="M143.336 170.985H133.547L132.848 170.286V152.116L133.547 151.418H143.336L144.035 152.116V170.286L143.336 170.985ZM134.346 169.587H142.736V152.815H134.346V169.587Z" fill="#00286B"/>
<path d="M126.855 183.564C119.863 183.564 114.17 189.254 114.17 196.243V221.301H139.541V196.243C139.541 189.254 133.847 183.564 126.855 183.564Z" fill="#47AFFF"/>
<path d="M139.54 222H114.169L113.47 221.301V196.243C113.47 188.855 119.463 182.865 126.854 182.865C134.246 182.865 140.239 188.855 140.239 196.243V221.301L139.54 222ZM114.968 220.602H138.941V196.243C138.941 189.654 133.547 184.263 126.954 184.263C120.362 184.263 114.968 189.654 114.968 196.243V220.602Z" fill="#00286B"/>
<path d="M224.643 56.0765L249.615 69.0549V221.301H224.643V56.0765Z" fill="#004D8E"/>
<path d="M250.313 222H223.843V54.8785L250.313 68.5558V222ZM225.342 220.602H249.014V69.4543L225.342 57.1747V220.602Z" fill="#00286B"/>
<path d="M224.543 56.0765H166.11V221.401H224.543V56.0765Z" fill="#005DAF"/>
<path d="M225.342 222.001H165.51V55.3785H225.342V222.001ZM166.909 220.603H223.943V56.7762H166.909V220.603Z" fill="#00286B"/>
<path d="M184.889 74.2462H175.4V91.5175H184.889V74.2462Z" fill="#47AFFF"/>
<path d="M185.587 92.2163H174.7V73.5474H185.587V92.2163ZM176.098 90.8186H184.189V74.9451H176.098V90.8186Z" fill="#00286B"/>
<path d="M200.071 74.2462H190.582V91.5175H200.071V74.2462Z" fill="#47AFFF"/>
<path d="M200.87 92.2163H189.982V73.5474H200.87V92.2163ZM191.281 90.8186H199.371V74.9451H191.281V90.8186Z" fill="#00286B"/>
<path d="M215.354 74.2462H205.865V91.5175H215.354V74.2462Z" fill="#47AFFF"/>
<path d="M216.152 92.2163H205.265V73.5474H216.152V92.2163ZM206.563 90.8186H214.654V74.9451H206.563V90.8186Z" fill="#00286B"/>
<path d="M184.889 103.399H175.4V120.67H184.889V103.399Z" fill="#47AFFF"/>
<path d="M185.587 121.468H174.7V102.799H185.587V121.468ZM176.098 120.07H184.189V104.196H176.098V120.07Z" fill="#00286B"/>
<path d="M200.071 103.399H190.582V120.67H200.071V103.399Z" fill="#47AFFF"/>
<path d="M200.87 121.468H189.982V102.799H200.87V121.468ZM191.281 120.07H199.371V104.196H191.281V120.07Z" fill="#00286B"/>
<path d="M215.354 103.399H205.865V120.67H215.354V103.399Z" fill="#47AFFF"/>
<path d="M216.152 121.468H205.265V102.799H216.152V121.468ZM206.563 120.07H214.654V104.196H206.563V120.07Z" fill="#00286B"/>
<path d="M184.889 132.649H175.4V149.92H184.889V132.649Z" fill="#47AFFF"/>
<path d="M185.587 150.619H174.7V131.95H185.587V150.619ZM176.098 149.221H184.189V133.348H176.098V149.221Z" fill="#00286B"/>
<path d="M200.071 132.649H190.582V149.92H200.071V132.649Z" fill="#47AFFF"/>
<path d="M200.87 150.619H189.982V131.95H200.87V150.619ZM191.281 149.221H199.371V133.348H191.281V149.221Z" fill="#00286B"/>
<path d="M215.354 132.649H205.865V149.92H215.354V132.649Z" fill="#47AFFF"/>
<path d="M216.152 150.619H205.265V131.95H216.152V150.619ZM206.563 149.221H214.654V133.348H206.563V149.221Z" fill="#00286B"/>
<path d="M184.889 161.9H175.4V179.171H184.889V161.9Z" fill="#47AFFF"/>
<path d="M185.587 179.87H174.7V161.201H185.587V179.87ZM176.098 178.473H184.189V162.599H176.098V178.473Z" fill="#00286B"/>
<path d="M200.071 161.9H190.582V179.171H200.071V161.9Z" fill="#47AFFF"/>
<path d="M200.87 179.87H189.982V161.201H200.87V179.87ZM191.281 178.473H199.371V162.599H191.281V178.473Z" fill="#00286B"/>
<path d="M215.354 161.9H205.865V179.171H215.354V161.9Z" fill="#47AFFF"/>
<path d="M216.152 179.87H205.265V161.201H216.152V179.87ZM206.563 178.473H214.654V162.599H206.563V178.473Z" fill="#00286B"/>
<path d="M184.889 191.053H175.4V208.324H184.889V191.053Z" fill="#47AFFF"/>
<path d="M185.587 209.121H174.7V190.453H185.587V209.121ZM176.098 207.724H184.189V191.85H176.098V207.724Z" fill="#00286B"/>
<path d="M200.071 191.053H190.582V208.324H200.071V191.053Z" fill="#47AFFF"/>
<path d="M200.87 209.121H189.982V190.453H200.87V209.121ZM191.281 207.724H199.371V191.85H191.281V207.724Z" fill="#00286B"/>
<path d="M215.354 191.053H205.865V208.324H215.354V191.053Z" fill="#47AFFF"/>
<path d="M216.152 209.121H205.265V190.453H216.152V209.121ZM206.563 207.724H214.654V191.85H206.563V207.724Z" fill="#00286B"/>
<path d="M231.435 185.86H230.036V221.301H231.435V185.86Z" fill="#00286B"/>
<path d="M239.755 160.462C240.523 155.727 237.304 151.267 232.566 150.502C227.828 149.736 223.365 152.954 222.597 157.69C221.829 162.425 225.047 166.884 229.786 167.65C234.524 168.416 238.987 165.198 239.755 160.462Z" fill="#00286B"/>
<path d="M239.188 198.254C240.475 192.836 237.123 187.403 231.702 186.12C226.28 184.836 220.842 188.188 219.555 193.606C218.268 199.025 221.62 204.457 227.042 205.74C232.463 207.024 237.902 203.672 239.188 198.254Z" fill="#00286B"/>
<path d="M245.866 176.565C249.261 173.175 249.261 167.679 245.866 164.289C242.47 160.899 236.965 160.899 233.569 164.289C230.174 167.679 230.174 173.175 233.569 176.565C236.965 179.955 242.47 179.955 245.866 176.565Z" fill="#00286B"/>
<path d="M219.348 199.338C224.148 199.338 228.039 195.449 228.039 190.652C228.039 185.855 224.148 181.967 219.348 181.967C214.549 181.967 210.658 185.855 210.658 190.652C210.658 195.449 214.549 199.338 219.348 199.338Z" fill="#00286B"/>
<path d="M232.486 183.361C237.248 178.608 237.248 170.9 232.486 166.147C227.725 161.393 220.005 161.393 215.243 166.147C210.482 170.9 210.481 178.608 215.243 183.361C220.005 188.115 227.725 188.115 232.486 183.361Z" fill="#00286B"/>
<path d="M239.725 199.138C246.455 199.138 251.911 193.685 251.911 186.958C251.911 180.232 246.455 174.779 239.725 174.779C232.995 174.779 227.539 180.232 227.539 186.958C227.539 193.685 232.995 199.138 239.725 199.138Z" fill="#00286B"/>
<path d="M241.342 189.497C243.15 182.22 238.713 174.856 231.432 173.048C224.151 171.241 216.782 175.676 214.974 182.953C213.166 190.23 217.603 197.595 224.884 199.402C232.165 201.209 239.533 196.775 241.342 189.497Z" fill="#00286B"/>
<path d="M35.6591 221.301H22.9737C22.9737 217.807 25.7704 215.012 29.2664 215.012C29.9656 215.012 30.7647 215.111 31.364 215.411C33.9611 216.21 35.6591 218.506 35.6591 221.301Z" fill="#00286B"/>
<path d="M86.301 221.301H73.6156C73.6156 218.306 75.6133 215.81 78.4101 215.111C78.9095 215.012 79.4089 214.912 79.9083 214.912C83.4043 215.012 86.301 217.807 86.301 221.301Z" fill="#00286B"/>
<path d="M79.0094 218.705C79.0094 219.604 78.9095 220.502 78.7098 221.301H59.2321C59.0323 220.502 58.9324 219.604 58.9324 218.705C58.9324 215.012 60.8302 211.817 63.8268 210.12C65.3251 209.221 67.123 208.622 69.0209 208.622C73.3159 208.622 77.0117 211.318 78.4101 215.111C78.8096 216.309 79.0094 217.507 79.0094 218.705Z" fill="#00286B"/>
<path d="M65.2252 217.008C65.2252 218.506 65.0254 219.903 64.6259 221.301H31.9633C31.5638 219.903 31.364 218.506 31.364 217.008C31.364 216.409 31.364 215.91 31.4639 215.311C32.3629 206.825 39.5547 200.136 48.2447 200.136C55.1368 200.136 61.03 204.23 63.627 210.12C64.6259 212.216 65.2252 214.512 65.2252 217.008Z" fill="#00286B"/>
</svg>
